<svg xmlns="http://www.w3.org/2000/svg" width="960" height="600" viewBox="0 0 960 600" role="img" aria-labelledby="title desc">
  <title id="title">MERN service dashboard sample</title>
  <desc id="desc">A React dashboard mockup with service requests, status columns, and delivery metrics.</desc>
  <rect width="960" height="600" fill="#fffdfa"/>
  <rect x="54" y="52" width="852" height="496" rx="18" fill="#ffffff" stroke="#d9e2e4" stroke-width="2"/>
  <rect x="54" y="52" width="210" height="496" rx="18" fill="#172033"/>
  <text x="88" y="104" fill="#ffffff" font-family="Arial, sans-serif" font-size="26" font-weight="700">Service Board</text>
  <rect x="88" y="142" width="132" height="34" rx="8" fill="#087d8f"/>
  <rect x="88" y="196" width="132" height="16" rx="8" fill="#49627f"/>
  <rect x="88" y="232" width="104" height="16" rx="8" fill="#49627f"/>
  <rect x="88" y="268" width="118" height="16" rx="8" fill="#49627f"/>
  <text x="304" y="108" fill="#172033" font-family="Arial, sans-serif" font-size="30" font-weight="800">MERN Work Sample</text>
  <rect x="304" y="142" width="154" height="88" rx="12" fill="#dff1ec"/>
  <rect x="482" y="142" width="154" height="88" rx="12" fill="#fff3e4"/>
  <rect x="660" y="142" width="154" height="88" rx="12" fill="#ffe9e2"/>
  <text x="326" y="178" fill="#075e6c" font-family="Arial, sans-serif" font-size="18" font-weight="700">Open Tasks</text>
  <text x="326" y="212" fill="#172033" font-family="Arial, sans-serif" font-size="32" font-weight="800">18</text>
  <text x="504" y="178" fill="#9b6014" font-family="Arial, sans-serif" font-size="18" font-weight="700">In Review</text>
  <text x="504" y="212" fill="#172033" font-family="Arial, sans-serif" font-size="32" font-weight="800">07</text>
  <text x="682" y="178" fill="#b54b34" font-family="Arial, sans-serif" font-size="18" font-weight="700">Blocked</text>
  <text x="682" y="212" fill="#172033" font-family="Arial, sans-serif" font-size="32" font-weight="800">02</text>
  <rect x="304" y="270" width="160" height="218" rx="12" fill="#f3f8f6" stroke="#d9e2e4"/>
  <rect x="494" y="270" width="160" height="218" rx="12" fill="#f3f8f6" stroke="#d9e2e4"/>
  <rect x="684" y="270" width="160" height="218" rx="12" fill="#f3f8f6" stroke="#d9e2e4"/>
  <text x="328" y="310" fill="#172033" font-family="Arial, sans-serif" font-size="20" font-weight="700">Todo</text>
  <text x="518" y="310" fill="#172033" font-family="Arial, sans-serif" font-size="20" font-weight="700">Build</text>
  <text x="708" y="310" fill="#172033" font-family="Arial, sans-serif" font-size="20" font-weight="700">Done</text>
  <rect x="324" y="336" width="120" height="48" rx="8" fill="#ffffff" stroke="#d9e2e4"/>
  <rect x="324" y="402" width="120" height="48" rx="8" fill="#ffffff" stroke="#d9e2e4"/>
  <rect x="514" y="336" width="120" height="48" rx="8" fill="#ffffff" stroke="#d9e2e4"/>
  <rect x="514" y="402" width="120" height="48" rx="8" fill="#ffffff" stroke="#d9e2e4"/>
  <rect x="704" y="336" width="120" height="48" rx="8" fill="#ffffff" stroke="#d9e2e4"/>
  <rect x="704" y="402" width="120" height="48" rx="8" fill="#ffffff" stroke="#d9e2e4"/>
</svg>
